<?xml version="1.0" encoding="utf-8"?>
<!-- Generator: Adobe Illustrator 21.1.0, SVG Export Plug-In . SVG Version: 6.00 Build 0)  -->
<svg version="1.1"
	 id="Layer_1" shape-rendering="geometricPrecision" text-rendering="geometricPrecision" image-rendering="optimizeQuality"
	 xmlns="http://www.w3.org/2000/svg" xmlns:xlink="http://www.w3.org/1999/xlink" x="0px" y="0px" viewBox="0 0 210.9 42.3"
	 style="enable-background:new 0 0 210.9 42.3;" xml:space="preserve">
<style type="text/css">
	.st0{fill:#FFFFFF;}
	.st1{fill:#3C0108;}
</style>
<g>
	<g>
		<path class="st0" d="M56.5,6.2c-0.4-0.7-1-1-1.9-1c-5.1,0-10.3,0.1-15.4,0c-1.3,0-2.1,0.5-2.7,1.6c-1.3,2.3-2.7,4.7-4,7
			c-0.6,1-1.1,2-1.7,3c0,0.1-0.1,0.1-0.2,0.2c-0.1-0.1-0.1-0.1-0.2-0.2c-0.6-1-1.1-2-1.7-3c-1.3-2.3-2.7-4.6-4-7
			c-0.6-1.1-1.4-1.6-2.7-1.6c-5.1,0-10.3,0-15.4,0c-0.8,0-1.5,0.3-1.9,1C4.4,6.9,4.4,7.7,4.9,8.4c0.6,1,1.2,2,1.7,3
			c1.6,2.8,3.2,5.5,4.8,8.3c1.7,2.9,3.3,5.8,5,8.7c1.5,2.6,3,5.2,4.5,7.8c0.4,0.7,1,1.1,1.9,1c0.8,0,1.4-0.4,1.8-1.1
			c0.4-0.7,0.8-1.4,1.2-2.1c1.3-2.3,2.7-4.6,4-6.9c0.3-0.5,0.6-1,0.9-1.6c0.3,0.6,0.6,1.1,0.9,1.6c1.3,2.3,2.7,4.6,4,6.9
			c0.4,0.7,0.8,1.4,1.2,2.1c0.4,0.7,0.9,1.1,1.8,1.1c0.8,0,1.4-0.3,1.9-1c1.5-2.6,3-5.2,4.5-7.8c1.7-2.9,3.4-5.8,5-8.7
			c1.6-2.8,3.2-5.5,4.8-8.3c0.6-1,1.1-2,1.7-3C56.9,7.7,56.9,6.9,56.5,6.2z M28.2,21.5c-1.5,2.6-3,5.3-4.6,7.9c-0.3,0.5-0.6,1-1,1.6
			c-4.2-7.3-8.3-14.5-12.5-21.8c0.2,0,0.4,0,0.6,0c3.4,0,6.9,0,10.3,0c0.4,0,0.6,0.1,0.8,0.4c1.8,3.2,3.7,6.4,5.5,9.6
			c0.3,0.5,0.6,1,0.9,1.6C28.3,21,28.3,21.3,28.2,21.5z M38.6,31c-0.4-0.6-0.7-1.1-1-1.6c-1.5-2.6-3.1-5.3-4.6-7.9
			c-0.1-0.2-0.1-0.5,0-0.7c0.3-0.5,0.6-1.1,0.9-1.6c1.8-3.2,3.7-6.4,5.5-9.6c0.2-0.3,0.4-0.4,0.8-0.4c3.4,0,6.9,0,10.3,0
			c0.2,0,0.3,0,0.6,0C47,16.5,42.8,23.8,38.6,31z"/>
	</g>
</g>
<g>
	<path class="st0" d="M66.3,13.9h4.1l2.1,11.3l3.8-11.3h3.5l4.1,11.3l1.8-11.3H90l-4.2,16.3h-3.9L78,18.6l-3.9,11.5h-3.9L66.3,13.9z
		"/>
	<path class="st0" d="M91.7,25.1c0-3.2,2.4-4.9,7.1-4.9c1.1,0,2.2,0.1,3.3,0.3v-1.2c0-1.5-1-2.2-3.1-2.2c-1.8,0-3.8,0.3-5.9,0.8
		v-3.3c2.2-0.5,4.1-0.8,5.9-0.8c4.8,0,7.3,1.8,7.3,5.4v10.9h-2.4l-1.5-1.5c-1.4,1-3,1.5-4.7,1.5C93.7,30.2,91.7,28.5,91.7,25.1z
		 M98.7,23c-2,0-3,0.7-3,2c0,1.4,0.8,2.2,2.5,2.2c1.4,0,2.6-0.4,3.8-1.3v-2.6C101,23.1,99.9,23,98.7,23z"/>
	<path class="st0" d="M124.6,28.9c0,4.8-2.9,7.1-8.6,7.1c-2,0-3.8-0.3-5.3-0.8V32c1.6,0.5,3.4,0.8,5.4,0.8c3,0,4.4-1.2,4.4-3.7
		c-1.2,0.5-2.5,0.8-3.9,0.8c-4.8,0-7.3-2.6-7.3-7.9c0-5.4,2.8-8,8.4-8c1.9,0,4.2,0.2,6.8,0.7V28.9z M120.5,17.6
		c-0.7-0.2-1.6-0.4-2.9-0.4c-2.8,0-4.3,1.6-4.3,4.7c0,3,1.2,4.5,3.7,4.5c1.2,0,2.3-0.3,3.5-0.8V17.6z"/>
	<path class="st0" d="M135.3,13.9c4.9,0,7.4,2.5,7.4,7.6c0,0.7,0,1.3-0.1,2h-10.8c0,2.3,1.7,3.4,5.1,3.4c1.6,0,3.3-0.2,4.9-0.5v3.3
		c-1.4,0.3-3.2,0.5-5.2,0.5c-5.9,0-8.8-2.8-8.8-8.3C127.7,16.5,130.2,13.9,135.3,13.9z M131.8,20.6h6.9v-0.1c0-2.3-1.1-3.4-3.4-3.4
		C133.1,17.1,132,18.3,131.8,20.6z"/>
	<path class="st0" d="M145.8,30.2V13.9h3.2l0.5,2.1c1.4-1.4,2.9-2.1,4.5-2.1v3.3c-1.5,0-2.9,0.6-4.1,1.9v11H145.8z"/>
	<path class="st1" d="M156.3,30.2V13.9h3.2L160,16c1.4-1.4,2.9-2.1,4.5-2.1v3.3c-1.5,0-2.9,0.6-4.1,1.9v11H156.3z"/>
</g>
</svg>
