<?xml version="1.0" encoding="utf-8"?>
<!-- Generator: Adobe Illustrator 21.1.0, SVG Export Plug-In . SVG Version: 6.00 Build 0)  -->
<svg version="1.1" id="Layer_1" xmlns="http://www.w3.org/2000/svg" xmlns:xlink="http://www.w3.org/1999/xlink" x="0px" y="0px"
	 viewBox="0 0 45.1 64.5" style="enable-background:new 0 0 45.1 64.5;" xml:space="preserve">
<style type="text/css">
	.st0{fill:#F5F5F5;}
</style>
<g>
	<path class="st0" d="M42.5,11.7c-0.6-1-1.4-1.4-2.6-1.4c-7.1,0-14.2,0.1-21.3,0c-1.8,0-2.9,0.7-3.7,2.2c-1.8,3.2-3.7,6.4-5.5,9.6
		c-0.8,1.4-1.5,2.7-2.3,4.1c-0.1,0.1-0.2,0.2-0.3,0.3c-0.1-0.1-0.2-0.2-0.2-0.3c-0.8-1.4-1.5-2.7-2.3-4.1c-1.4-2.5-2.9-4.9-4.3-7.4
		v11.2c0.7,1.3,1.5,2.5,2.2,3.8c0.4,0.7,0.9,1.4,1.3,2.2c0.1,0.3,0.1,0.7,0,1c-1.1,2-2.3,4-3.4,6v11c0,0,0,0,0,0
		c1.8-3.2,3.7-6.4,5.5-9.6C6,39.5,6.4,38.7,6.8,38c0.5,0.8,0.9,1.5,1.3,2.2c1.8,3.2,3.7,6.4,5.5,9.6c0.6,1,1.1,1.9,1.7,2.9
		c0.5,1,1.3,1.5,2.4,1.6c1.1,0.1,2-0.4,2.6-1.4c2.1-3.6,4.1-7.1,6.2-10.7c2.3-4,4.6-8,6.9-12c2.2-3.8,4.4-7.6,6.6-11.4
		c0.8-1.4,1.6-2.8,2.4-4.1C43,13.7,43.1,12.6,42.5,11.7z M17.9,45.9c-0.5-0.8-0.9-1.5-1.3-2.2c-2.1-3.6-4.2-7.3-6.3-10.9
		c-0.1-0.3-0.1-0.7,0-1c0.4-0.8,0.8-1.5,1.3-2.2c2.5-4.4,5.1-8.8,7.6-13.2c0.3-0.5,0.6-0.6,1.1-0.6c4.7,0,9.5,0,14.2,0
		c0.2,0,0.4,0,0.8,0.1C29.4,25.9,23.7,35.8,17.9,45.9z"/>
</g>
</svg>
